<svg viewBox="0 0 14 13" fill="none" xmlns="http://www.w3.org/2000/svg">
<path d="M12.8815 6.16312C12.8815 9.15298 10.1236 11.6513 6.6237 11.6513C3.12381 11.6513 0.365877 9.15298 0.365877 6.16312C0.365877 3.17326 3.12381 0.674959 6.6237 0.674959C10.1236 0.674959 12.8815 3.17326 12.8815 6.16312Z" stroke="black" stroke-width="0.731754"/>
<path d="M6.26175 6.16329C6.26175 6.36536 6.42556 6.52917 6.62762 6.52917C6.82969 6.52917 6.9935 6.36536 6.9935 6.16329H6.26175ZM6.26175 2.85449V6.16329H6.9935V2.85449H6.26175Z" fill="black"/>
<path d="M6.85049 5.9485C6.69972 5.8136 6.45891 5.81695 6.31263 5.95599C6.16634 6.09503 6.16997 6.31711 6.32074 6.45202L6.85049 5.9485ZM9.55296 8.36672L6.85049 5.9485L6.32074 6.45202L9.02321 8.87024L9.55296 8.36672Z" fill="black"/>
</svg>
